<svg width="172" height="245" viewBox="0 0 172 245" fill="none" xmlns="http://www.w3.org/2000/svg">
<path d="M73.8451 0C131.952 71.6528 43.4382 113.641 77.9898 149.942C89.8689 161.424 108.042 162.849 115.929 144.224C123.557 127.392 104.773 102.423 117.675 87.4782C127.451 105.2 144.548 117.115 155.594 130.56C168.562 146.345 171.971 162.027 171.976 172.203C172.902 203.556 139.359 242.642 92.9338 244.304C54.4732 245.539 9.58907 224.819 0.977029 179.14C-10.9852 97.9363 91.7413 68.13 73.8451 0Z" fill="#2CB3BC"/>
<path d="M127.709 32.5826C129.132 55.3009 176.252 62.1387 153.535 103.885L127.709 32.5826ZM153.535 103.885C149.267 100.069 133.914 88.0042 124.78 76.0455C117.438 66.4328 114.422 53.5593 127.707 32.5836" fill="#2CB3BC"/>
</svg>
