<svg width="1782" height="2532" viewBox="0 0 1782 2532" fill="none" xmlns="http://www.w3.org/2000/svg">
<path d="M765.056 0C1367.1 742.422 450.012 1177.48 808 1553.6C931.079 1672.58 1119.36 1687.34 1201.09 1494.36C1280.12 1319.95 1085.5 1061.24 1219.18 906.395C1320.47 1090.02 1497.61 1213.47 1612.05 1352.78C1746.41 1516.34 1781.74 1678.83 1781.79 1784.27C1791.39 2109.12 1443.85 2514.11 962.834 2531.33C564.344 2544.12 99.3015 2329.43 10.0724 1856.14C-113.868 1014.76 950.479 705.921 765.056 0" fill="#2CB3BC"/>
<path d="M1323.14 337.602C1337.88 572.994 1826.09 643.843 1590.72 1076.4L1323.14 337.602ZM1590.73 1076.4C1546.5 1036.86 1387.43 911.846 1292.79 787.937C1216.72 688.337 1185.48 554.949 1323.12 337.612" fill="#2CB3BC"/>
</svg>
